# xmcd
#
# Track frame offsets:
#	150
#	23754
#	43462
#	78449
#	103935
#	125704
#	146839
#	174244
#	202704
#	227907
#	259604
#	280349
#
# Disc length: 4227 seconds
#
# Revision: 1
# Processed by: cddbd v1.5.2PL0 Copyright (c) Steve Scherf et al.
# Submitted via: audiograbber 1.83.01
#
DISCID=ab10810c
DTITLE=Stefan Waggershausen - So ist das Spiel
DYEAR=2010
DGENRE=Ballad
TTITLE0=Sonne im Westen
TTITLE1=Der alte Wolf wird langsam grau (musikalischer Gast Annett Louisan)
TTITLE2=Dein Lächeln beim Abschied
TTITLE3=Was soll ich Dir sagen (musikalischer Gast Alice)
TTITLE4=Für Dich (musikalischer Gast Nena)
TTITLE5=Ich will zurück zum Bodensee
TTITLE6=Endloser Sommer (Lilly and The Home-Boys) (feat. Sasha, Jan J. Liefers, H
TTITLE6=enning Wehland)
TTITLE7=1000 Küsse leicht
TTITLE8=So ist das Spiel
TTITLE9=Die Zeit wartet niemals
TTITLE10=Und sie sahen sich nur an
TTITLE11=Babylon Avenue
EXTD=
EXTT0=
EXTT1=
EXTT2=
EXTT3=
EXTT4=
EXTT5=
EXTT6=
EXTT7=
EXTT8=
EXTT9=
EXTT10=
EXTT11=
PLAYORDER=
